<svg width="227" height="203" viewBox="0 0 227 203" fill="none" xmlns="http://www.w3.org/2000/svg">
<g clip-path="url(#clip0_9_1674)">
<path fill-rule="evenodd" clip-rule="evenodd" d="M29.6435 25.4957C29.7114 33.1297 28.9054 40.5029 25.9047 44.5371L25.1035 44.8598C24.2033 46.1701 23.3116 47.7599 22.1659 48.7326C21.0245 49.7008 19.3954 50.1781 18.6941 51.6372C20.8359 53.1295 21.2416 56.0516 22.7 58.4146C25.7076 63.2879 27.205 71.2107 24.3024 77.7787L24.0353 80.0379C22.4522 83.1793 20.7299 86.3806 18.9612 89.3972C18.16 90.7643 16.7323 91.0195 16.2906 92.9472C15.9223 92.9109 15.5615 92.8019 15.2224 92.6245V93.5927C15.6849 93.9261 17.9237 98.6596 18.16 99.4019V101.016H18.6941L18.9612 102.629H19.4953C20.3923 104.423 20.6623 108.138 21.3647 110.052C22.1496 112.192 20.9374 119.678 20.5635 121.348C19.2646 127.152 16.2452 131.648 13.62 135.871C13.1927 136.558 13.4801 137.403 13.0859 138.13C12.3704 139.449 11.3107 141.168 10.6824 142.648L10.4153 146.521H9.88118C9.0306 148.858 10.7806 155.225 11.2165 156.526L11.7506 160.399C14.2059 165.762 17.8574 170.184 17.6259 177.826C15.8083 179.415 15.5252 180.468 12.0177 180.408C11.4109 179.117 10.6378 179.47 10.4153 177.504C9.97225 176.712 10.2508 175.809 10.4153 174.922H11.2165C11.1972 176.266 11.2774 177.126 11.7506 177.826V178.149L14.6882 178.472C15.5428 177.1 16.0436 176.948 16.0235 174.276C14.8773 172.551 14.6511 170.404 13.62 168.467C10.6354 162.86 4.81347 150.723 9.08 141.68L9.61412 138.453C12.3576 133.06 20.6781 121.002 18.6941 111.02C17.4657 104.841 14.735 99.6211 12.2847 94.8836C11.6171 93.595 11.7655 92.396 11.2165 91.0108C10.481 89.1554 8.98306 86.7907 8.27883 84.8789C7.29739 82.2144 6.83938 79.3062 5.8753 76.8105L5.60824 68.7421C5.61225 61.8492 9.58127 52.2252 14.1541 51.6372L14.6882 52.2827V51.6372C12.9564 50.8949 12.1394 48.5596 10.9494 47.1189C7.21059 42.5929 3.74551 39.1971 1.3353 32.9186C-0.0507358 29.3079 2.10496 21.2256 4.54001 20.9774C4.70985 20.8868 4.66339 21.0768 4.80706 20.6547C1.84511 18.8706 -0.0365818 16.1719 5.2937e-06 10.6499C0.00988647 9.16149 0.0205688 7.9451 0.534123 7.09986C2.68769 -0.643183 12.9086 -1.44131 19.4953 1.93611L19.7624 2.90431H19.4953C18.9315 3.70663 18.0705 4.56091 17.0918 4.84072C13.5578 -0.355304 3.66646 4.84556 3.47177 10.9727C3.15557 11.8199 3.65364 12.8087 4.00589 13.5546L4.27295 15.491H4.54001C5.23436 16.5282 6.16239 17.1482 6.94353 18.0728V18.7183C8.42945 20.0638 11.874 19.9237 12.2847 22.5911C12.5649 23.091 12.56 23.9095 12.5518 24.8503H12.0177C10.9606 23.9027 9.6905 24.3239 8.54589 23.5593C7.53347 22.8832 6.5579 21.9321 5.34118 21.3002V21.9456C6.13248 22.2132 6.07105 22.0886 6.40942 22.9139C6.03286 23.4683 6.22621 24.1438 5.8753 24.8503C1.65817 33.3382 10.0358 39.9429 13.3529 44.5371C14.5179 46.1507 15.8841 48.904 17.6259 49.7008C17.1161 47.1654 21.7562 44.6787 22.9671 42.6007C25.5575 38.1572 26.3878 33.6131 26.4388 25.8185C27.2114 25.4957 28.4882 25.4767 29.6435 25.4957ZM28.3082 10.9727C33.4935 10.9772 36.0206 14.4043 37.6553 18.7183C38.586 21.1746 37.2512 25.2798 37.1212 27.1094C36.1737 27.1378 34.6196 27.2324 34.4506 27.1094C34.1704 26.6095 34.1753 25.791 34.1835 24.8503C35.7453 23.2011 34.0204 18.8067 33.6494 17.1046C31.803 16.0916 31.0071 14.3085 28.5753 13.5546V14.2C29.4232 15.7569 29.5314 19.0594 29.6435 21.3002L26.4388 21.6229C25.7365 18.4763 25.1511 14.5728 24.5694 11.6181H24.0353V12.2636C24.2695 12.6816 24.274 13.0598 24.3024 13.8773C18.0972 13.6836 13.0421 15.7782 9.88118 19.3638C8.6204 19.0172 8.04008 18.249 7.21059 17.4274V16.7819C11.7955 14.2071 16.5697 9.60654 24.0353 11.2954V10.6499C23.0786 9.99141 22.3278 8.97071 21.8988 7.74533H22.1659C22.4698 6.93365 22.845 6.8165 23.2341 6.13166H22.7C21.9012 7.53814 19.0661 10.2982 17.0918 10.3272C16.6231 10.6977 15.2848 10.8387 14.6882 10.9727V10.0045C16.6191 8.00901 18.5211 5.73728 20.5635 3.87252C21.882 2.66872 25.8329 1.58723 27.5071 0.645173L33.3824 0.322438C39.7007 0.322438 43.9979 1.63629 47.8035 4.51799C50.1002 6.2572 53.963 7.21379 54.48 10.9727C53.4179 11.4749 52.9845 11.9225 51.2753 11.9409C49.1412 7.36225 36.6071 0.986303 29.9106 3.87252C27.7207 4.81684 24.5977 4.01129 23.5012 6.13166C26.2519 5.78988 26.798 11.1986 28.5753 12.5863V11.9409C28.3745 11.5946 28.4151 11.6356 28.3082 10.9727ZM92.1353 10.0045V10.9727C91.1368 11.4523 90.8353 12.243 89.7318 12.5863C88.0944 10.0348 81.2561 7.45487 77.4471 7.4226H72.3729V8.06807L68.9012 8.3908C67.708 8.77615 66.1363 9.70723 65.1624 10.3272C64.2052 10.9365 63.1666 10.3366 62.2247 10.9727C59.7907 12.616 56.7602 14.7545 54.2129 16.1364L52.6106 16.4592C48.8429 19.2253 44.1376 22.3975 38.4565 22.5911C38.3675 21.5153 38.2784 20.4396 38.1894 19.3638C44.1387 19.3922 49.998 13.5297 54.48 11.2954C57.3039 9.88764 59.716 8.63963 62.2247 7.09986L64.6282 6.77713V6.13166L68.3671 5.48619V4.84072L73.9753 4.51799C77.3135 3.32903 85.2276 5.17281 87.8624 7.09986C89.1691 8.05548 90.4392 9.53748 92.1353 10.0045ZM108.426 4.84072C116.008 4.61222 121.381 5.66434 125.785 9.03627C126.812 9.8231 127.868 9.69239 128.455 10.9727C128.522 11.2851 128.665 11.095 128.455 11.2954C128.183 11.5536 128.382 11.41 127.921 11.6181C126.876 10.069 125.197 10.3888 123.648 9.359C120.879 7.51684 115.503 6.18007 111.096 7.4226H108.693V8.06807L104.42 8.71353V9.359L102.551 9.68174V10.3272L99.88 10.9727C95.0054 14.5166 89.2422 17.0527 84.1235 20.332L81.72 20.6547C80.7752 21.1917 79.7919 21.6238 78.7824 21.9456H76.9129V22.5911H71.8388C67.2111 22.6292 62.7033 20.8134 59.02 17.4274C57.799 16.3378 56.6616 17.1411 56.3494 14.8455C57.4756 14.527 57.7352 14.0509 59.02 13.8773C60.3152 16.9607 70.8993 20.8774 76.3788 19.3638C84.8315 17.0288 91.9067 13.043 98.5447 8.3908L101.215 7.74533C102.1 7.18151 103.688 6.14747 104.687 5.80892C106.102 5.32902 107.722 6.13166 108.426 4.84072ZM155.695 8.3908C163.635 8.28494 172.571 8.3014 178.395 10.9727L182.935 11.6181C188.668 14.2536 193.252 16.3556 199.76 15.491C200.01 14.4582 200.224 14.3614 200.294 12.9091C199.486 12.3756 198.147 11.42 197.356 10.9727C196.6 10.5447 195.511 11.0872 194.953 10.6499H195.22C195.971 10.0516 198.021 10.2859 199.226 10.3272C200.652 12.1148 202.167 11.0443 202.164 14.8455C201.95 15.175 202.069 14.9339 201.896 15.491C200.876 16.2862 199.582 17.4274 198.425 18.0728C196.689 19.041 194.35 17.5419 193.084 17.4274C189.844 17.1346 186 15.6365 183.469 14.2L180.265 13.8773C179.894 13.7614 178.858 12.9936 178.662 12.9091H176.526C175.038 12.4911 173.301 12.0351 171.719 11.6181H167.98V10.9727H155.161V11.6181H152.491C152.332 11.6607 150.765 11.7211 150.354 11.9409V12.5863L146.615 12.9091C141.04 15.3783 134.014 16.0648 128.722 19.041H127.12C124.785 19.7807 121.636 20.3643 119.375 21.3002H116.438C110.456 22.8538 103.968 20.7515 99.88 19.041C97.8704 18.2 95.567 17.8369 95.34 14.8455C96.0683 14.4114 96.2325 14.0929 97.2094 13.8773C101.505 20.3855 120.695 19.5516 127.387 15.8137H128.989C130.537 15.2922 132.054 14.6452 133.529 13.8773L136.467 13.5546C138.02 13.0545 139.538 12.407 141.007 11.6181L144.479 11.2954C146.152 10.8042 148.618 10.1516 150.087 9.359C151.806 8.43082 154.531 9.88958 155.695 8.3908ZM25.3706 29.0458L25.1035 32.2732H21.3647C20.2834 30.9312 17.7805 31.1794 16.5577 30.014C13.6734 27.2656 13.0154 23.5916 13.0859 17.1046C14.7222 16.6205 15.7405 15.693 17.6259 15.491V15.8137C15.9263 17.6249 16.9136 21.9069 17.0918 24.5275C17.9851 25.091 17.5383 25.7149 18.16 26.4639C19.6051 28.2067 22.582 29.0219 25.3706 29.0458ZM199.493 177.181H196.555C196.439 165.707 198.22 159.604 202.965 154.267C204.271 152.797 206.135 152.096 207.505 150.717C204.512 147.285 197.615 135.603 200.294 126.834C201.801 121.904 203.612 117.814 206.169 114.248C207.596 112.258 208.284 108.819 210.709 108.116C210.318 105.98 209.131 104.507 208.306 102.952C206.768 100.056 205.286 94.6174 204.567 91.0108C203.592 86.1175 204.976 79.8374 206.169 77.1332C206.258 76.3802 206.347 75.6271 206.436 74.8741C206.912 73.5622 208.63 69.6277 209.374 68.4194C212.038 64.0967 214.596 60.1048 215.784 53.8964C217.226 46.3486 212.039 34.2741 209.908 30.3367C208.898 28.4704 206.823 24.522 208.306 21.6229C208.719 20.3927 209.489 19.9092 210.175 19.041H213.914C214.788 20.8429 215.531 21.0065 215.516 24.2048C215.303 24.5343 215.422 24.2932 215.249 24.8503L214.982 24.5275C213.829 22.27 214.387 20.6195 211.244 20.6547C210.695 21.7982 209.984 21.3864 209.641 22.9139C208.515 25.1891 211.282 28.6427 212.045 30.014C214.555 34.53 218.879 44.2195 218.187 51.96C217.128 63.7969 211.556 68.796 208.573 78.4242C208.083 80.0056 205.73 86.8443 206.971 90.0426C211.289 101.177 215.574 111.343 220.056 122.316C220.547 123.517 221.926 134.059 221.125 136.194C219.741 139.878 218.801 143.567 216.852 146.521C215.776 148.151 213.854 149.015 212.846 150.717C212.255 150.191 211.603 149.577 210.976 149.103V149.426H211.244C212.536 152.03 214.822 153.204 216.585 155.235C220.245 159.45 223.433 164.118 225.665 170.081C227.024 173.714 224.178 181.191 222.46 181.699C221.749 180.314 220.685 181.131 220.324 179.117C221.538 177.942 222.979 172.319 221.659 169.435H221.125C220.471 168.118 220.528 166.775 219.789 165.562C219.161 164.531 218.089 163.908 217.386 162.981C216.505 161.816 215.983 160.102 214.982 159.108C212.918 157.057 210.159 154.886 208.84 152.008H208.573C208.732 152.748 208.732 153.526 208.573 154.267C202.237 158.081 199.466 165.546 199.493 177.181ZM33.3824 20.9774V23.8821C31.885 23.9556 31.1356 24.5136 29.9106 24.8503L18.16 25.173C18.1266 23.8288 17.9731 23.6858 17.6259 22.9139H18.16C19.5001 21.9176 22.2409 23.0562 24.0353 22.5911C25.3706 22.2448 28.9225 22.6195 30.1777 21.9456C31.2705 21.3586 31.5891 21.0342 33.3824 20.9774ZM36.8541 31.9504C36.8498 33.5696 36.939 35.1872 37.1212 36.7914C39.1802 38.0004 39.5052 39.6983 42.9965 39.696C43.87 38.4697 45.0197 38.7388 45.4 36.7914C45.9074 35.8833 45.5351 34.6404 45.4 33.5641C44.5871 33.12 43.7496 32.0631 42.9965 31.6277C39.1727 29.4179 33.9165 31.4737 30.1777 32.2732V28.7231C38.0497 28.196 49.3482 25.3415 49.4059 37.1142C48.5665 37.7919 49.1687 38.3832 48.6047 39.3733H48.0706C47.2125 40.6672 47.1407 40.683 45.9341 41.6324V42.2779L43.5306 42.6007C40.0305 44.5048 35.4144 41.0173 34.1835 38.0824C33.5589 36.593 33.615 34.4113 33.6494 32.2732C34.422 31.9504 35.6988 31.9314 36.8541 31.9504ZM17.8929 50.0235L18.16 50.9917H18.4271V50.3463L17.8929 50.0235ZM15.7565 53.5736C14.9369 54.8881 13.4598 55.5849 12.5518 56.801C11.2814 58.5027 9.97412 61.2721 9.08 63.2557C8.26254 65.0694 8.39286 71.6887 8.81295 73.9059C9.5778 77.9423 9.77222 79.7009 11.2165 82.6197L11.7506 85.5243C12.6984 87.3165 13.9063 89.3049 14.4212 91.6563H14.6882C14.8912 87.9213 18.6247 84.2244 20.0294 81.3288C23.9084 73.333 23.0517 64.4369 18.6941 58.0919C17.5565 56.4353 17.2814 54.7816 15.7565 53.5736ZM218.721 81.6515C219.039 83.0538 219.916 83.4091 220.324 84.5561C220.413 85.6319 220.502 86.7077 220.591 87.7835H221.125V92.9472H220.591C220.502 94.3457 220.413 95.7443 220.324 97.1428C219.285 100.34 216.072 103.827 215.516 107.148H214.448C214.166 105.677 213.708 105.625 213.647 103.597C215.877 102.044 221.207 91.1025 218.988 85.5243C218.344 83.9052 217.313 82.9541 217.119 80.6833H217.653C217.98 81.6838 217.753 81.413 218.721 81.6515ZM10.9494 93.9154C11.8208 94.275 12.082 94.6706 12.2847 95.8518C12.4984 96.2327 12.4911 96.3944 12.5518 97.1428C10.3501 98.7471 5.90788 107.833 6.94353 113.28C7.44908 115.938 8.83458 117.335 9.08 120.057H8.54589C8.10097 118.745 7.25626 118.75 6.67648 117.798C6.03553 116.744 5.51504 114.162 5.07412 112.957C4.48339 111.343 5.4002 108.503 5.60824 107.793V105.211C5.68382 104.919 6.36081 104.356 6.40942 104.243C7.08908 102.662 6.94781 100.822 7.74471 99.4019C8.73123 97.6446 10.231 96.0229 10.9494 93.9154ZM211.244 109.407C211.333 110.052 211.422 110.698 211.511 111.343C207.017 114.982 201.567 128.267 204.033 137.485C205.202 141.854 208.359 145.365 210.442 148.78H210.709C211.262 146.799 212.741 146.658 213.647 145.23C214.868 143.307 216.241 140.951 217.119 138.776C220.252 131.011 216.455 120.909 213.914 115.861C212.779 113.605 212.866 110.984 211.244 109.407ZM207.772 151.039V151.685H208.306V151.362L207.772 151.039ZM189.078 170.726C189.169 168.348 188.944 165.813 188.009 164.594C187.253 163.607 183.761 161.956 182.134 163.303C180.452 163.911 179.664 165.341 179.731 168.144C180.714 168.811 181.924 170.608 183.202 171.372C186.319 173.234 192.952 170.67 195.754 170.404C195.843 171.587 195.932 172.77 196.021 173.954C194.652 174.022 193.301 174.349 192.015 174.922C189.906 175.787 184.765 174.992 183.469 174.276L180.799 173.954C177.476 171.734 176.101 169.637 176.526 163.626C177.873 162.732 178.706 160.521 180.265 159.753C185.532 157.159 191.828 161.905 192.015 166.853C192.551 167.791 192.205 169.729 192.015 170.726H189.078ZM200.828 170.404C209.515 170.145 215.069 174.649 213.113 185.895H213.647C214.606 184.821 215.833 183.602 217.386 183.313C218.258 184.264 219.216 184.164 219.522 185.895C214.121 189.27 211.235 191.941 202.698 192.027C202.481 191.554 202.212 191.119 201.896 190.736V189.122C204.203 189.225 209.443 188.658 210.175 187.186H209.107C209.386 183.947 210.674 180.268 208.84 177.504C207.01 174.767 204.456 173.26 200.294 173.308C200.509 172.078 200.771 172.04 200.828 170.404ZM188.544 175.567H191.481C191.366 182.295 191.312 186.05 195.22 188.799C196.068 189.396 196.779 189.063 197.624 189.768C197.178 186.96 196.591 184.536 196.555 181.376L199.76 181.054C199.952 183.781 200.415 188.13 201.362 190.413C202.145 192.3 203.892 193.282 204.3 195.577C203.751 195.972 203.522 196.109 203.232 196.868H203.499C204.758 195.422 206.708 192.838 208.84 192.672C209.517 192.127 211.024 192.052 212.045 192.027V192.672C210.496 193.447 209.75 195.619 208.573 196.868L206.971 197.513C206.047 198.392 204.882 199.797 203.766 200.418C191.704 207.127 177.602 200.454 170.651 192.995V192.349L170.918 192.027C172.135 191.792 172.803 190.666 173.855 191.381C175.11 192.037 175.807 193.391 176.793 194.286C180.217 197.396 190.333 201.8 196.555 199.127C198.692 198.209 201.654 198.963 202.698 196.868C200.724 197.046 198.689 192.83 197.891 190.413H197.624V191.059C197.824 191.405 197.784 191.364 197.891 192.027C189.8 191.836 187.773 185.715 188.544 175.567ZM208.306 177.181C208.395 178.042 208.484 178.902 208.573 179.763C202.694 179.673 197.422 181.244 192.549 182.022V179.117C193.228 178.675 193.484 178.499 194.686 178.472C196.578 177.032 204.876 177.156 208.306 177.181ZM213.914 177.826C218.068 178.101 225.694 183.369 226.466 187.508C227.04 188.444 227.502 192.751 227 194.609C225.911 198.638 222.04 201.943 218.454 203C214.702 204.105 207.588 202.516 206.704 200.095C207.716 199.425 208.337 198.514 209.641 198.159C210.245 199.44 213.563 200.636 215.516 200.095C218.176 199.359 225.706 194.919 223.528 189.445C222.453 186.742 220.102 184.004 217.92 182.667C216.747 181.949 215.406 182.308 214.715 181.054C214.063 180.253 213.918 179.472 213.914 177.826ZM187.475 180.086C187.564 181.054 187.653 182.022 187.742 182.99C182.731 184.152 178.899 187.267 174.924 189.445C172.371 190.844 169.95 191.992 167.713 193.64C166.375 194.626 164.815 194.286 163.44 195.254C159.884 197.759 155.336 198.136 150.621 199.45C145.944 200.752 138.065 197.073 135.666 195.254C134.281 194.205 132.623 194.563 132.194 192.349C133.417 191.933 133.41 191.273 134.865 191.059C141.369 199.252 161.669 195.415 167.446 189.122C165.28 188.933 164.767 187.57 163.44 186.54C160.128 183.971 152.075 182.824 147.149 184.281H145.28C144.389 184.787 142.752 185.823 141.808 186.218L139.672 186.54C134.692 189.858 129.138 192.913 123.915 195.9C122.155 196.906 119.85 196.496 118.04 197.513C116.497 198.38 110.238 200.344 107.358 199.127L107.091 198.481L103.619 198.159V197.513L100.147 196.868C98.4293 195.721 96.4726 193.802 94.5388 192.995L94.8059 192.672C95.0786 192.414 94.8791 192.558 95.34 192.349C97.8771 195.093 106.853 197.951 111.898 196.545H114.568C116.928 195.192 120.078 194.759 122.58 193.318C127.617 190.416 133.281 187.384 138.069 183.958L141.007 183.313C141.908 182.736 143.389 181.737 144.479 181.376L148.218 181.054V180.408C149.643 179.64 155.217 180.646 155.962 181.054L160.502 181.699V182.345C162.183 183.434 164.268 183.414 165.844 184.604C166.792 185.32 167.422 186.502 168.781 186.863V188.154C168.174 188.477 168.04 188.394 167.713 189.122H168.247C171.22 186.029 182.297 180.421 187.475 180.086ZM107.358 181.699C118.169 181.464 122.315 183.162 129.256 187.186V187.831C128.265 188.651 128.293 189.33 126.586 189.445C124.085 185.649 116.692 184.927 110.829 184.927L104.153 185.249V185.895L98.0106 186.54C96.3425 187.485 93.6228 188.3 91.8682 189.122L87.5953 189.768V190.413C85.6957 191.498 82.1807 191.064 80.1176 192.027L79.8506 192.672L76.6459 192.995C72.0162 195.022 59.3843 196.668 52.8777 194.931H49.1388C45.8882 194.053 41.9424 193.544 39.2577 192.027L34.9847 191.381C31.3813 189.248 27.1599 188.089 22.1659 188.477C21.3417 189.652 20.6685 189.141 20.5635 191.381C20.5926 191.392 26.1718 193.963 26.1718 193.963H21.8988C21.5201 193.653 21.0247 193.648 20.2965 193.64C19.7501 191.975 18.8277 192.156 18.6941 189.768C19.8884 188.615 20.4006 187.121 22.1659 186.54C26.7946 185.02 35.7944 188.773 38.7235 190.09L41.9282 190.413C42.1355 190.506 43.1482 191.268 43.5306 191.381H46.2012V192.027H48.6047C50.9759 192.655 53.7726 192.67 56.6165 192.672H60.3553C63.9454 194.137 76.3436 191.237 79.3165 189.445L83.5894 188.799V188.154L86.26 187.831V187.186L90.8 186.54V185.895L93.4706 185.572V184.927L96.4082 184.604C98.3393 183.509 101.699 182.95 103.886 182.345C105.347 181.94 106.534 182.753 107.358 181.699ZM212.579 185.895C212.047 186.37 211.337 186.48 210.442 186.54V187.186H211.244C211.845 186.637 212.445 186.754 212.846 185.895H212.579Z" fill="black"/>
</g>
<defs>
<clipPath id="clip0_9_1674">
<rect width="227" height="203" fill="white"/>
</clipPath>
</defs>
</svg>
