<svg width="471" height="566" viewBox="0 0 471 566" fill="none" xmlns="http://www.w3.org/2000/svg">
<path fill-rule="evenodd" clip-rule="evenodd" d="M77.2655 20.0557L95.1313 19.3422C97.6302 19.3092 101.003 18.6906 102.614 19.8972C103.165 20.31 103.74 21.1663 103.988 21.8789C104.228 22.571 103.966 23.4116 104.14 24.2571C104.253 24.8008 104.084 25.6753 104.217 26.3182C104.494 27.6636 104.357 29.4513 104.446 30.8366H422.594C426.858 30.8366 429.352 30.5682 431.833 32.5014C434.262 34.3949 434.123 37.6905 434.123 42.0932V474.917H434.276C434.686 474.652 436.812 474.837 437.482 474.837H455.425C458.049 474.837 459.994 474.789 461.074 476.344C461.847 477.455 461.838 479.058 461.838 481.021V535.797C461.838 538.745 462.146 541.704 460.922 543.407C459.892 544.841 457.793 544.755 455.348 544.755H402.82C401.015 544.755 399.419 544.811 398.391 544.042C396.483 542.612 396.845 539.707 396.864 536.352H379.075C376.462 536.352 373.13 536.713 371.593 535.56C369.622 534.081 370.142 530.293 370.142 526.84C370.142 525.382 370.067 523.728 370.218 522.4H43.3663C39.6334 522.4 36.879 522.626 34.7388 520.974C32.0528 518.901 32.2193 515.495 32.2193 510.668V83.3938L21.3013 83.8694C19.0917 83.8766 17.268 84.2032 15.8805 83.156C13.5798 81.4199 14.8928 77.5348 14.2008 74.1983V72.1372C13.7936 61.6215 13.3864 51.1048 12.9792 40.5871C12.9539 39.3151 13.0643 37.927 12.8265 36.782C12.6931 36.1394 12.863 35.2646 12.7502 34.721C12.6168 34.0784 12.7867 33.2035 12.6738 32.6599C12.3977 31.3292 12.7837 29.7245 12.5211 28.4585V26.7145C12.4788 25.4229 12.5467 23.5047 12.2921 22.2753V20.2142C11.775 17.7127 12.5761 15.5603 13.8954 14.6652C14.5276 14.2363 15.49 14.039 16.4913 14.031H17.9419C19.8158 13.6117 22.0965 14.1341 23.9735 13.714C24.5924 13.5755 25.435 13.7518 25.9586 13.6347H27.9437C28.4673 13.5173 29.3104 13.6941 29.9288 13.5554C31.8005 13.1357 34.0886 13.6575 35.9604 13.2383H37.9455C39.8191 12.8182 42.1003 13.3414 43.9771 12.9212H45.9622C47.1451 12.6562 48.9946 12.7273 50.2378 12.6834H51.9174C53.137 12.4107 54.6818 12.8111 55.964 12.5249C57.5403 12.173 59.8624 12.3489 61.6138 12.2871C62.8829 12.2423 64.7599 12.3188 65.9657 12.0493C66.5847 11.9111 67.4272 12.0868 67.9508 11.97H69.9359C71.0822 11.7163 73.8077 11.6393 74.7459 12.0493C77.354 13.1891 77.2785 16.2855 77.2655 20.0557ZM24.8134 26.9523C24.4082 27.6245 23.7298 28.0087 23.2864 28.617C22.8105 29.27 22.1877 30.1488 21.5303 30.5988L21.6067 30.6781C21.9328 31.1876 22.4351 31.5782 22.9046 31.9465L23.5918 32.7392C24.2128 33.393 24.8761 34.0022 25.5769 34.5624L26.7221 35.8308C28.2387 37.0206 29.4047 38.6046 30.9213 39.7943C31.8233 40.5019 33.2022 42.5888 34.2044 42.9652V42.8859L36.2658 40.5871C36.6285 40.21 37.2268 39.7712 37.411 39.2394L24.8134 26.9523ZM43.5954 38.3675C43.5886 39.6551 43.5076 41.0971 43.748 42.2518C43.8818 42.8939 43.7112 43.7692 43.8244 44.3128C43.9634 44.9805 43.7823 45.8843 43.9007 46.4532C44.1728 47.7601 43.7953 49.3346 44.0534 50.5753V52.3986C44.1236 53.7034 44.0229 55.5885 44.2825 56.8378C44.3079 58.2118 44.3334 59.5859 44.3588 60.9599C44.8896 63.522 44.358 66.7377 44.7406 69.3627C44.766 70.7103 44.7915 72.0579 44.8169 73.4056C44.9286 73.9494 44.7614 74.8234 44.8933 75.4666C45.01 76.0357 44.8327 76.9385 44.9696 77.607C45.2866 79.1545 44.8845 80.7104 44.2825 81.5705C43.161 83.1726 40.7088 83.1679 38.0218 83.156V500.839L53.0627 516.455H427.633C427.851 516.236 428.101 516.033 428.32 515.821V48.0386C424.732 44.3132 421.144 40.5874 417.555 36.8613H80.0904L43.5954 38.3675ZM25.4242 48.0386C24.959 48.7982 24.2298 49.2856 23.6681 49.9411C23.4453 50.2011 23.292 50.4901 23.0573 50.7338C22.7519 51.0509 22.3015 51.3052 22.1411 51.7644H22.2175C23.2844 52.9426 24.4822 54.1945 25.7296 55.1731C26.3404 55.6519 26.779 56.3433 27.4093 56.8378L28.7072 58.2647C29.8925 59.4696 31.123 60.7922 32.4483 61.8319L33.5172 63.021L34.9679 64.3686C35.3174 64.7314 35.5984 65.2125 36.1131 65.3991C36.9682 63.9954 38.5167 63.1227 39.3961 61.7526L36.1131 58.5817L35.3496 57.7098C34.4569 57.0092 33.6183 56.1499 32.8301 55.3316L31.9902 54.3803C31.0976 53.6798 30.2589 52.8205 29.4707 52.0022C28.6103 51.109 27.7767 50.1537 26.7985 49.3862C26.3175 49.009 26.035 48.2685 25.4242 48.0386ZM448.782 496.003C448.535 496.724 447.674 497.171 447.255 497.747C446.339 499.005 445.104 499.997 444.201 501.235C442.802 503.154 441.017 504.705 439.62 506.625L438.017 508.29C437.327 509.237 436.401 509.979 435.726 510.906C435.014 511.898 434.222 512.826 433.36 513.681C433.408 513.819 433.374 513.757 433.436 513.839C433.924 514.588 434.877 515.275 435.574 515.821C435.803 516.085 436.032 516.349 436.261 516.614C436.512 516.811 436.697 516.895 436.872 517.169L436.948 517.089C437.611 516.598 438.211 515.706 438.704 515.028C438.984 514.764 439.264 514.5 439.544 514.236C440.487 512.939 441.655 511.885 442.598 510.589L444.125 509.004C445.977 506.46 448.381 504.414 450.233 501.869C450.87 500.993 451.853 500.338 452.447 499.412C451.041 498.545 450.13 496.938 448.782 496.003ZM38.0982 515.821C38.2001 516.071 38.3918 516.27 38.6326 516.376C38.4545 516.191 38.2763 516.006 38.0982 515.821ZM451.683 522.083C451.415 522.416 450.97 522.552 450.614 522.797C449.64 523.47 448.654 524.112 447.637 524.779C444.491 526.842 441.391 529.134 438.246 531.2C437.151 531.919 436.091 532.614 435.039 533.34C434.651 533.609 434.025 533.765 433.818 534.212C434.302 534.626 434.543 535.391 434.887 535.956C435.363 536.741 435.994 537.483 436.413 538.334H436.566C436.835 537.994 437.275 537.87 437.635 537.621C438.685 536.895 439.746 536.199 440.842 535.48C443.908 533.47 446.983 531.308 450.004 529.218C451.073 528.478 452.161 527.795 453.21 527.078C453.591 526.818 454.298 526.623 454.432 526.126C454.096 525.841 453.99 525.402 453.745 525.016C453.347 524.392 452.832 523.747 452.447 523.114C452.212 522.729 452.158 522.215 451.683 522.083Z" fill="black"/>
</svg>
