<svg width="189" height="150" viewBox="0 0 189 150" fill="none" xmlns="http://www.w3.org/2000/svg">
<g clip-path="url(#clip0_9_1674)">
<path fill-rule="evenodd" clip-rule="evenodd" d="M24.6812 18.8392C24.7376 24.4801 24.0666 29.9282 21.5682 32.9092L20.9012 33.1476C20.1516 34.1158 19.4092 35.2906 18.4553 36.0093C17.505 36.7247 16.1486 37.0774 15.5647 38.1556C17.348 39.2583 17.6857 41.4174 18.9 43.1635C21.4041 46.7645 22.6509 52.6188 20.2341 57.472L20.0118 59.1413C18.6936 61.4626 17.2597 63.828 15.7871 66.057C15.12 67.0672 13.9313 67.2558 13.5635 68.6802C13.2569 68.6534 12.9564 68.5728 12.6741 68.4417V69.1572C13.0592 69.4035 14.9232 72.9012 15.12 73.4497V74.6421H15.5647L15.7871 75.8344H16.2318C16.9786 77.1596 17.2034 79.9049 17.7882 81.3193C18.4417 82.9002 17.4325 88.4318 17.1212 89.6659C16.0396 93.9544 13.5257 97.2766 11.34 100.397C10.9842 100.905 11.2235 101.529 10.8953 102.067C10.2996 103.041 9.41731 104.312 8.89411 105.405L8.67176 108.267H8.22705C7.51886 109.994 8.97594 114.698 9.33882 115.66L9.78352 118.521C11.8278 122.484 14.8681 125.752 14.6753 131.399C13.162 132.572 12.9263 133.351 10.0059 133.307C9.50069 132.353 8.85698 132.613 8.67176 131.16C8.30287 130.575 8.53479 129.908 8.67176 129.253H9.33882C9.32281 130.246 9.38951 130.881 9.78352 131.399V131.637L12.2294 131.876C12.9409 130.862 13.3578 130.749 13.3412 128.776C12.3868 127.5 12.1985 125.914 11.34 124.483C8.85498 120.34 4.00768 111.372 7.55999 104.69L8.0047 102.305C10.2889 98.3204 17.2166 89.4105 15.5647 82.0347C14.5419 77.4687 12.2683 73.6116 10.2282 70.1111C9.67235 69.1588 9.79597 68.2729 9.33882 67.2494C8.72646 65.8784 7.47928 64.1311 6.89293 62.7184C6.07579 60.7495 5.69445 58.6006 4.89176 56.7565L4.66941 50.7947C4.67274 45.7014 7.97735 38.5901 11.7847 38.1556L12.2294 38.6325V38.1556C10.7874 37.6071 10.1073 35.8815 9.11646 34.8169C6.00352 31.4726 3.11849 28.9634 1.11176 24.3241C-0.0422532 21.6561 1.75258 15.684 3.77999 15.5006C3.92141 15.4336 3.88272 15.574 4.00235 15.2621C1.53623 13.9438 -0.0304685 11.9497 -6.14591e-06 7.86941C0.00822091 6.76957 0.017115 5.87076 0.4447 5.2462C2.23775 -0.47526 10.7476 -1.06501 16.2318 1.43062L16.4541 2.14604H16.2318C15.7624 2.73889 15.0455 3.37013 14.2306 3.57689C11.2882 -0.262542 3.05268 3.58046 2.89058 8.10789C2.62732 8.73388 3.042 9.46456 3.33529 10.0157L3.55764 11.4465H3.77999C4.35811 12.213 5.13079 12.6711 5.78117 13.3543V13.8313C7.01834 14.8255 9.88625 14.722 10.2282 16.6929C10.4615 17.0623 10.4575 17.6671 10.4506 18.3623H10.0059C9.1258 17.6621 8.06829 17.9733 7.11529 17.4084C6.27235 16.9088 5.46009 16.206 4.44705 15.739V16.216C5.10588 16.4137 5.05474 16.3216 5.33646 16.9314C5.02295 17.3411 5.18393 17.8402 4.89176 18.3623C1.38058 24.6341 8.35579 29.5145 11.1176 32.9092C12.0875 34.1015 13.2251 36.1359 14.6753 36.7247C14.2508 34.8513 18.1142 33.0138 19.1223 31.4783C21.2792 28.195 21.9705 24.8373 22.0129 19.0777C22.6562 18.8392 23.7193 18.8251 24.6812 18.8392ZM23.5694 8.10789C27.8866 8.11123 29.9907 10.6436 31.3518 13.8313C32.1267 15.6463 31.0153 18.6797 30.9071 20.0316C30.1181 20.0526 28.8243 20.1224 28.6835 20.0316C28.4503 19.6622 28.4543 19.0574 28.4612 18.3623C29.7615 17.1437 28.3253 13.8966 28.0165 12.6389C26.4791 11.8903 25.8165 10.5728 23.7918 10.0157V10.4926C24.4977 11.643 24.5878 14.0833 24.6812 15.739L22.0129 15.9775C21.4281 13.6524 20.9407 10.7681 20.4565 8.58483H20.0118V9.06178C20.2068 9.37061 20.2105 9.6501 20.2341 10.2542C15.0677 10.1111 10.8588 11.6588 8.22705 14.3082C7.17732 14.0521 6.69415 13.4845 6.00352 12.8774V12.4004C9.82088 10.4979 13.7959 7.09843 20.0118 8.34636V7.86941C19.2152 7.38282 18.5901 6.6286 18.2329 5.72315H18.4553C18.7083 5.12339 19.0207 5.03682 19.3447 4.53078H18.9C18.2349 5.57005 15.8744 7.60948 14.2306 7.63094C13.8404 7.90471 12.7261 8.00892 12.2294 8.10789V7.39247C13.837 5.91798 15.4206 4.23937 17.1212 2.86146C18.2189 1.97196 21.5084 1.17283 22.9023 0.476727L27.7941 0.238253C33.0548 0.238253 36.6326 1.20908 39.8012 3.33841C41.7134 4.62355 44.9295 5.33038 45.36 8.10789C44.4757 8.47895 44.1148 8.80971 42.6918 8.82331C40.9149 5.44008 30.479 0.728794 24.9035 2.86146C23.0802 3.55924 20.48 2.96401 19.5671 4.53078C21.8573 4.27824 22.312 8.27482 23.7918 9.30026V8.82331C23.6245 8.56743 23.6583 8.59771 23.5694 8.10789ZM76.7118 7.39247V8.10789C75.8804 8.46226 75.6293 9.04652 74.7106 9.30026C73.3473 7.41488 67.6538 5.50852 64.4823 5.48468H60.2576V5.96162L57.367 6.2001C56.3736 6.48483 55.065 7.17283 54.2541 7.63094C53.4572 8.08118 52.5925 7.63785 51.8082 8.10789C49.7817 9.32219 47.2584 10.9023 45.1376 11.9235L43.8035 12.1619C40.6666 14.2059 36.7489 16.5499 32.0188 16.6929C31.9447 15.898 31.8706 15.1031 31.7965 14.3082C36.7498 14.3292 41.6282 9.99731 45.36 8.34636C47.7112 7.30614 49.7194 6.38396 51.8082 5.2462L53.8094 5.00773V4.53078L56.9223 4.05383V3.57689L61.5918 3.33841C64.3712 2.45987 70.9604 3.82227 73.1541 5.2462C74.2421 5.95232 75.2996 7.04739 76.7118 7.39247ZM90.2753 3.57689C96.5883 3.40805 101.062 4.18547 104.728 6.67704C105.584 7.25844 106.463 7.16186 106.952 8.10789C107.008 8.33873 107.126 8.19827 106.952 8.34636C106.725 8.53714 106.891 8.43102 106.507 8.58483C105.637 7.44016 104.239 7.67649 102.949 6.91552C100.643 5.55431 96.1676 4.56655 92.4988 5.48468H90.4976V5.96162L86.94 6.43857V6.91552L85.3835 7.15399V7.63094L83.16 8.10789C79.1014 10.7266 74.303 12.6005 70.0412 15.0236L68.04 15.2621C67.2533 15.6589 66.4347 15.9782 65.5941 16.216H64.0376V16.6929H59.8129C55.9599 16.7211 52.2067 15.3793 49.14 12.8774C48.1234 12.0723 47.1764 12.6658 46.9165 10.9696C47.8541 10.7342 48.0703 10.3824 49.14 10.2542C50.2184 12.5325 59.0307 15.4266 63.5929 14.3082C70.6306 12.5828 76.5214 9.6377 82.0482 6.2001L84.2718 5.72315C85.008 5.30654 86.3307 4.54247 87.1623 4.29231C88.3408 3.9377 89.6892 4.53078 90.2753 3.57689ZM129.632 6.2001C136.242 6.12188 143.683 6.13404 148.532 8.10789L152.312 8.58483C157.085 10.5322 160.901 12.0854 166.32 11.4465C166.528 10.6834 166.707 10.6119 166.765 9.53873C166.092 9.14453 164.977 8.43841 164.319 8.10789C163.689 7.79167 162.782 8.19254 162.318 7.86941H162.54C163.165 7.42728 164.872 7.60041 165.875 7.63094C167.062 8.95185 168.324 8.16083 168.321 10.9696C168.143 11.2131 168.242 11.0349 168.099 11.4465C167.249 12.0341 166.171 12.8774 165.208 13.3543C163.763 14.0697 161.816 12.962 160.761 12.8774C158.064 12.6611 154.864 11.5541 152.756 10.4926L150.088 10.2542C149.779 10.1685 148.917 9.60121 148.754 9.53873H146.975C145.736 9.22991 144.29 8.89294 142.973 8.58483H139.86V8.10789H129.187V8.58483H126.964C126.832 8.61631 125.527 8.66091 125.185 8.82331V9.30026L122.072 9.53873C117.429 11.3633 111.58 11.8705 107.174 14.0697H105.84C103.896 14.6163 101.274 15.0475 99.3918 15.739H96.9459C91.9652 16.8871 86.5635 15.3336 83.16 14.0697C81.4868 13.4483 79.569 13.18 79.38 10.9696C79.9863 10.6488 80.1231 10.4135 80.9365 10.2542C84.5132 15.0632 100.49 14.447 106.062 11.685H107.396C108.685 11.2996 109.948 10.8216 111.176 10.2542L113.622 10.0157C114.915 9.64618 116.179 9.16775 117.402 8.58483L120.293 8.34636C121.686 7.9834 123.739 7.50121 124.962 6.91552C126.393 6.22967 128.662 7.30757 129.632 6.2001ZM21.1235 21.4624L20.9012 23.8472H17.7882C16.8879 22.8556 14.804 23.039 13.7859 22.1778C11.3845 20.147 10.8366 17.4322 10.8953 12.6389C12.2576 12.2812 13.1055 11.5958 14.6753 11.4465V11.685C13.2602 13.0233 14.0823 16.1874 14.2306 18.1238C14.9744 18.5402 14.6024 19.0011 15.12 19.5546C16.3231 20.8424 18.8017 21.4448 21.1235 21.4624ZM166.098 130.922H163.652C163.555 122.444 165.038 117.934 168.988 113.99C170.076 112.904 171.628 112.386 172.768 111.367C170.276 108.831 164.534 100.2 166.765 93.72C168.019 90.0766 169.527 87.0544 171.656 84.4195C172.844 82.9495 173.417 80.4079 175.436 79.8885C175.111 78.3103 174.123 77.2219 173.435 76.0729C172.155 73.9331 170.921 69.9143 170.322 67.2494C169.51 63.6336 170.663 58.9932 171.656 56.995C171.731 56.4386 171.805 55.8821 171.879 55.3257C172.275 54.3563 173.705 51.4491 174.325 50.5562C176.543 47.3621 178.673 44.4124 179.661 39.8249C180.862 34.2477 176.543 25.3257 174.769 22.4163C173.929 21.0372 172.2 18.1197 173.435 15.9775C173.779 15.0685 174.421 14.7112 174.992 14.0697H178.105C178.832 15.4011 179.451 15.522 179.439 17.8853C179.261 18.1288 179.36 17.9507 179.216 18.3623L178.994 18.1238C178.034 16.4557 178.498 15.2361 175.881 15.2621C175.424 16.107 174.833 15.8027 174.547 16.9314C173.61 18.6127 175.913 21.1646 176.548 22.1778C178.638 25.5148 182.239 32.6745 181.662 38.3941C180.781 47.1406 176.141 50.8345 173.658 57.9489C173.25 59.1174 171.29 64.1707 172.324 66.534C175.919 74.7613 179.486 82.2732 183.219 90.3813C183.627 91.2689 184.775 99.0582 184.108 100.636C182.956 103.358 182.174 106.084 180.551 108.267C179.655 109.471 178.055 110.109 177.215 111.367C176.724 110.979 176.18 110.525 175.659 110.175V110.413H175.881C176.957 112.337 178.861 113.205 180.328 114.706C183.376 117.82 186.03 121.269 187.888 125.675C189.02 128.36 186.65 133.885 185.22 134.261C184.628 133.237 183.742 133.84 183.441 132.353C184.452 131.484 185.652 127.329 184.553 125.199H184.108C183.564 124.225 183.612 123.233 182.996 122.337C182.473 121.575 181.581 121.115 180.995 120.429C180.262 119.569 179.827 118.302 178.994 117.567C177.275 116.052 174.978 114.448 173.88 112.321H173.658C173.79 112.868 173.79 113.443 173.658 113.99C168.382 116.809 166.075 122.325 166.098 130.922ZM27.7941 15.5006V17.6468C26.5474 17.7012 25.9235 18.1135 24.9035 18.3623L15.12 18.6007C15.0922 17.6075 14.9643 17.5018 14.6753 16.9314H15.12C16.2358 16.1952 18.5178 17.0366 20.0118 16.6929C21.1235 16.4371 24.0808 16.7139 25.1259 16.216C26.0357 15.7822 26.301 15.5425 27.7941 15.5006ZM30.6847 23.6087C30.6811 24.8051 30.7554 26.0004 30.9071 27.1858C32.6214 28.0791 32.892 29.3337 35.7988 29.3321C36.5261 28.4259 37.4834 28.6247 37.8 27.1858C38.2225 26.5147 37.9125 25.5964 37.8 24.801C37.1232 24.4729 36.4259 23.6919 35.7988 23.3702C32.6152 21.7374 28.2388 23.2565 25.1259 23.8472V21.2239C31.6802 20.8345 41.0873 18.7252 41.1353 27.4243C40.4364 27.9251 40.9378 28.3619 40.4682 29.0936H40.0235C39.3091 30.0496 39.2493 30.0613 38.2447 30.7629V31.2398L36.2435 31.4783C33.3294 32.8853 29.486 30.3084 28.4612 28.1397C27.9411 27.0391 27.9878 25.427 28.0165 23.8472C28.6597 23.6087 29.7228 23.5946 30.6847 23.6087ZM14.8976 36.9632L15.12 37.6786H15.3423V37.2017L14.8976 36.9632ZM13.1188 39.5864C12.4364 40.5577 11.2066 41.0726 10.4506 41.9712C9.39285 43.2286 8.30443 45.275 7.55999 46.7406C6.87937 48.0809 6.98788 52.972 7.33764 54.6103C7.97446 57.5929 8.13633 58.8923 9.33882 61.0491L9.78352 63.1953C10.5727 64.5196 11.5784 65.9888 12.0071 67.7263H12.2294C12.3984 64.9665 15.5069 62.2347 16.6765 60.0952C19.9061 54.187 19.1928 47.6134 15.5647 42.9251C14.6175 41.701 14.3885 40.479 13.1188 39.5864ZM182.107 60.3336C182.371 61.3698 183.102 61.6324 183.441 62.4799C183.515 63.2748 183.589 64.0697 183.664 64.8646H184.108V68.6802H183.664C183.589 69.7136 183.515 70.747 183.441 71.7804C182.577 74.1432 179.901 76.7194 179.439 79.1731H178.549C178.314 78.0863 177.933 78.0482 177.882 76.5499C179.739 75.4018 184.177 67.3171 182.329 63.1953C181.793 61.9989 180.935 61.2961 180.773 59.6182H181.218C181.49 60.3575 181.301 60.1574 182.107 60.3336ZM9.11646 69.3956C9.842 69.6613 10.0595 69.9537 10.2282 70.8265C10.4061 71.1079 10.4001 71.2274 10.4506 71.7804C8.6175 72.9658 4.91889 79.6796 5.78117 83.7041C6.20208 85.6686 7.35565 86.7007 7.55999 88.712H7.11529C6.74485 87.7426 6.04155 87.7462 5.55882 87.0427C5.02517 86.2643 4.5918 84.3563 4.2247 83.4656C3.73286 82.2732 4.49619 80.1747 4.66941 79.65V77.7422C4.73233 77.5262 5.296 77.1105 5.33646 77.0268C5.90235 75.8583 5.78473 74.499 6.44823 73.4497C7.2696 72.1512 8.51833 70.9529 9.11646 69.3956ZM175.881 80.8424C175.955 81.3193 176.029 81.7963 176.104 82.2732C172.362 84.9618 167.824 94.7788 169.878 101.59C170.851 104.818 173.48 107.412 175.214 109.936H175.436C175.897 108.472 177.128 108.368 177.882 107.313C178.899 105.892 180.042 104.151 180.773 102.543C183.382 96.8063 180.22 89.3418 178.105 85.6119C177.159 83.9447 177.232 82.008 175.881 80.8424ZM172.991 111.605V112.082H173.435V111.844L172.991 111.605ZM157.426 126.152C157.502 124.395 157.315 122.522 156.536 121.621C155.907 120.892 152.999 119.672 151.645 120.667C150.244 121.117 149.588 122.173 149.644 124.245C150.462 124.737 151.47 126.065 152.534 126.629C155.129 128.005 160.652 126.111 162.985 125.914C163.059 126.788 163.133 127.663 163.207 128.537C162.067 128.588 160.942 128.829 159.872 129.253C158.115 129.892 153.835 129.305 152.756 128.776L150.533 128.537C147.766 126.897 146.622 125.348 146.975 120.906C148.097 120.245 148.791 118.612 150.088 118.044C154.474 116.127 159.716 119.634 159.872 123.291C160.318 123.984 160.03 125.416 159.872 126.152H157.426ZM167.209 125.914C174.442 125.723 179.066 129.051 177.438 137.361H177.882C178.681 136.567 179.702 135.666 180.995 135.453C181.722 136.156 182.519 136.082 182.774 137.361C178.277 139.854 175.874 141.828 168.766 141.892C168.586 141.542 168.361 141.221 168.099 140.938V139.745C170.019 139.821 174.382 139.402 174.992 138.315H174.102C174.335 135.921 175.407 133.203 173.88 131.16C172.356 129.138 170.23 128.025 166.765 128.06C166.944 127.151 167.162 127.123 167.209 125.914ZM156.981 129.73H159.427C159.331 134.701 159.286 137.475 162.54 139.507C163.246 139.948 163.838 139.702 164.541 140.222C164.17 138.148 163.681 136.357 163.652 134.022L166.32 133.784C166.48 135.799 166.866 139.012 167.654 140.699C168.306 142.094 169.76 142.819 170.1 144.515C169.643 144.807 169.452 144.908 169.211 145.469H169.433C170.482 144.401 172.105 142.491 173.88 142.369C174.443 141.966 175.699 141.91 176.548 141.892V142.369C175.259 142.941 174.637 144.546 173.658 145.469L172.324 145.946C171.555 146.595 170.584 147.633 169.655 148.092C159.612 153.049 147.871 148.119 142.084 142.607V142.13L142.306 141.892C143.319 141.719 143.876 140.886 144.752 141.415C145.797 141.899 146.377 142.899 147.198 143.561C150.048 145.859 158.471 149.113 163.652 147.138C165.431 146.46 167.897 147.017 168.766 145.469C167.122 145.6 165.428 142.485 164.764 140.699H164.541V141.176C164.708 141.432 164.675 141.402 164.764 141.892C158.028 141.75 156.34 137.228 156.981 129.73ZM173.435 130.922C173.509 131.558 173.584 132.194 173.658 132.83C168.763 132.764 164.373 133.924 160.316 134.499V132.353C160.882 132.026 161.095 131.896 162.095 131.876C163.671 130.812 170.58 130.903 173.435 130.922ZM178.105 131.399C181.563 131.602 187.912 135.494 188.555 138.553C189.033 139.245 189.418 142.427 189 143.799C188.093 146.777 184.87 149.219 181.885 150C178.761 150.817 172.838 149.642 172.101 147.854C172.944 147.358 173.462 146.685 174.547 146.423C175.05 147.369 177.812 148.253 179.439 147.854C181.653 147.309 187.923 144.029 186.109 139.984C185.214 137.987 183.257 135.963 181.44 134.976C180.464 134.445 179.347 134.71 178.772 133.784C178.229 133.192 178.108 132.615 178.105 131.399ZM156.092 133.068C156.166 133.784 156.24 134.499 156.314 135.214C152.142 136.073 148.951 138.374 145.641 139.984C143.516 141.017 141.501 141.866 139.638 143.084C138.523 143.812 137.225 143.561 136.08 144.276C133.119 146.128 129.333 146.406 125.407 147.377C121.513 148.339 114.953 145.62 112.955 144.276C111.802 143.501 110.422 143.766 110.065 142.13C111.083 141.822 111.077 141.335 112.288 141.176C117.703 147.231 134.606 144.396 139.415 139.745C137.612 139.606 137.185 138.598 136.08 137.838C133.323 135.939 126.618 135.092 122.516 136.168H120.96C120.218 136.542 118.855 137.307 118.069 137.599L116.291 137.838C112.145 140.289 107.52 142.547 103.172 144.753C101.706 145.497 99.7869 145.194 98.28 145.946C96.9957 146.586 91.7837 148.037 89.3859 147.138L89.1635 146.661L86.2729 146.423V145.946L83.3823 145.469C81.9522 144.621 80.323 143.203 78.7129 142.607L78.9353 142.369C79.1623 142.178 78.9962 142.284 79.38 142.13C81.4923 144.157 88.9661 146.269 93.1659 145.23H95.3894C97.3539 144.231 99.9768 143.911 102.06 142.846C106.254 140.702 110.969 138.461 114.956 135.93L117.402 135.453C118.152 135.027 119.386 134.288 120.293 134.022L123.406 133.784V133.307C124.593 132.739 129.234 133.483 129.854 133.784L133.634 134.261V134.737C135.033 135.542 136.769 135.528 138.081 136.407C138.871 136.936 139.395 137.809 140.527 138.076V139.03C140.022 139.268 139.91 139.208 139.638 139.745H140.082C142.558 137.46 151.78 133.316 156.092 133.068ZM89.3859 134.261C98.3876 134.087 101.839 135.342 107.619 138.315V138.792C106.794 139.397 106.817 139.899 105.395 139.984C103.313 137.179 97.1573 136.645 92.2765 136.645L86.7176 136.884V137.361L81.6035 137.838C80.2147 138.535 77.9503 139.138 76.4894 139.745L72.9318 140.222V140.699C71.3502 141.501 68.4235 141.181 66.7059 141.892L66.4835 142.369L63.8153 142.607C59.9606 144.105 49.4433 145.321 44.0259 144.038H40.9129C38.2065 143.389 34.9212 143.012 32.6859 141.892L29.1282 141.415C26.128 139.838 22.6133 138.982 18.4553 139.268C17.7691 140.137 17.2086 139.759 17.1212 141.415C17.1454 141.422 21.7906 143.323 21.7906 143.323H18.2329C17.9176 143.093 17.5052 143.09 16.8988 143.084C16.4439 141.853 15.6759 141.987 15.5647 140.222C16.5591 139.371 16.9855 138.267 18.4553 137.838C22.3091 136.714 29.8024 139.487 32.2412 140.461L34.9094 140.699C35.082 140.768 35.9251 141.331 36.2435 141.415H38.4671V141.892H40.4682C42.4425 142.356 44.771 142.367 47.1388 142.369H50.2518C53.2408 143.451 63.5636 141.308 66.0388 139.984L69.5965 139.507V139.03L71.82 138.792V138.315L75.6 137.838V137.361L77.8235 137.122V136.645L80.2694 136.407C81.8772 135.598 84.6747 135.185 86.4953 134.737C87.712 134.439 88.7001 135.039 89.3859 134.261ZM176.993 137.361C176.55 137.711 175.959 137.793 175.214 137.838V138.315H175.881C176.382 137.909 176.882 137.995 177.215 137.361H176.993Z" fill="black"/>
</g>
<defs>
<clipPath id="clip0_9_1674">
<rect width="189" height="150" fill="white"/>
</clipPath>
</defs>
</svg>
