<svg width="1068" height="242" viewBox="0 0 1068 242" fill="none" xmlns="http://www.w3.org/2000/svg">
<rect y="219.311" width="179.537" height="22.6895" fill="#DB2A2A"/>
<rect y="242" width="109.865" height="20.8985" transform="rotate(-90 0 242)" fill="#DB2A2A"/>
<rect x="158.639" y="242" width="109.865" height="20.8985" transform="rotate(-90 158.639 242)" fill="#DB2A2A"/>
<path d="M89.0192 177.898L4.11742 98.3501L23.3252 79.6063L110.091 157.928L89.0192 177.898Z" fill="#DB2A2A"/>
<path d="M179.497 95.3438L92.3831 174.059L74.1112 155.977L160.839 78.386L179.497 95.3438Z" fill="#DB2A2A"/>
<path d="M113.517 33.0181L91.8521 13.7419L35.3312 69.2714L53.8549 85.3929L113.517 33.0181Z" fill="#F87E3A"/>
<path d="M145.814 64.6639L126.341 46.1541L67.92 98.6981L88.0524 115.893L145.814 64.6639Z" fill="#F87E3A"/>
<path d="M285.21 170V60.9091H351.048V72.6278H298.42V109.489H347.639V121.207H298.42V158.281H351.901V170H285.21Z" fill="#F87E3A"/>
<path d="M388.069 60.9091V170H374.859V60.9091H388.069ZM425.422 120.781V170H412.851V88.1818H424.996V100.966H426.062C427.979 96.8111 430.891 93.473 434.797 90.9517C438.704 88.3949 443.746 87.1165 449.925 87.1165C455.465 87.1165 460.312 88.2528 464.467 90.5256C468.622 92.7628 471.854 96.1719 474.162 100.753C476.47 105.298 477.624 111.051 477.624 118.011V170H465.053V118.864C465.053 112.436 463.384 107.429 460.046 103.842C456.708 100.22 452.127 98.4091 446.303 98.4091C442.29 98.4091 438.704 99.2791 435.543 101.019C432.418 102.759 429.95 105.298 428.139 108.636C426.328 111.974 425.422 116.023 425.422 120.781ZM564.569 88.1818L534.314 170H521.529L491.274 88.1818H504.91L527.495 153.381H528.348L550.933 88.1818H564.569ZM581.162 170V88.1818H593.733V170H581.162ZM587.554 74.5455C585.104 74.5455 582.991 73.7109 581.215 72.0419C579.475 70.3729 578.605 68.3665 578.605 66.0227C578.605 63.679 579.475 61.6726 581.215 60.0035C582.991 58.3345 585.104 57.5 587.554 57.5C590.004 57.5 592.099 58.3345 593.839 60.0035C595.615 61.6726 596.503 63.679 596.503 66.0227C596.503 68.3665 595.615 70.3729 593.839 72.0419C592.099 73.7109 590.004 74.5455 587.554 74.5455ZM652.34 88.1818V98.8352H609.939V88.1818H652.34ZM622.297 68.5795H634.868V146.562C634.868 150.114 635.383 152.777 636.413 154.553C637.479 156.293 638.828 157.464 640.461 158.068C642.131 158.636 643.888 158.92 645.735 158.92C647.12 158.92 648.256 158.849 649.144 158.707C650.032 158.53 650.742 158.388 651.275 158.281L653.832 169.574C652.979 169.893 651.79 170.213 650.263 170.533C648.736 170.888 646.8 171.065 644.457 171.065C640.905 171.065 637.425 170.302 634.016 168.775C630.643 167.248 627.837 164.922 625.6 161.797C623.398 158.672 622.297 154.73 622.297 149.972V68.5795ZM695.327 171.918C690.142 171.918 685.437 170.941 681.211 168.988C676.985 166.999 673.629 164.141 671.143 160.412C668.657 156.648 667.415 152.102 667.415 146.776C667.415 142.088 668.338 138.288 670.184 135.376C672.031 132.429 674.499 130.121 677.589 128.452C680.678 126.783 684.087 125.54 687.816 124.723C691.58 123.871 695.362 123.196 699.162 122.699C704.133 122.06 708.164 121.58 711.253 121.261C714.378 120.906 716.651 120.32 718.072 119.503C719.528 118.686 720.256 117.266 720.256 115.241V114.815C720.256 109.56 718.817 105.476 715.941 102.564C713.1 99.652 708.785 98.196 702.997 98.196C696.996 98.196 692.29 99.5099 688.881 102.138C685.472 104.766 683.075 107.571 681.69 110.554L669.758 106.293C671.889 101.321 674.73 97.4503 678.281 94.6804C681.868 91.875 685.774 89.9219 690 88.821C694.261 87.6847 698.452 87.1165 702.571 87.1165C705.199 87.1165 708.217 87.4361 711.626 88.0753C715.071 88.679 718.391 89.9396 721.587 91.8572C724.819 93.7749 727.5 96.669 729.631 100.54C731.761 104.411 732.827 109.595 732.827 116.094V170H720.256V158.92H719.616C718.764 160.696 717.344 162.596 715.355 164.62C713.366 166.644 710.721 168.366 707.418 169.787C704.116 171.207 700.085 171.918 695.327 171.918ZM697.244 160.625C702.216 160.625 706.406 159.648 709.815 157.695C713.26 155.742 715.852 153.221 717.592 150.131C719.368 147.042 720.256 143.793 720.256 140.384V128.878C719.723 129.517 718.551 130.103 716.74 130.636C714.964 131.133 712.905 131.577 710.561 131.967C708.253 132.322 705.998 132.642 703.796 132.926C701.63 133.175 699.872 133.388 698.523 133.565C695.256 133.991 692.202 134.684 689.361 135.643C686.555 136.566 684.282 137.969 682.542 139.851C680.838 141.697 679.986 144.219 679.986 147.415C679.986 151.783 681.601 155.085 684.833 157.322C688.1 159.524 692.237 160.625 697.244 160.625ZM791.354 88.1818V98.8352H748.953V88.1818H791.354ZM761.311 68.5795H773.882V146.562C773.882 150.114 774.397 152.777 775.427 154.553C776.492 156.293 777.842 157.464 779.475 158.068C781.144 158.636 782.902 158.92 784.749 158.92C786.134 158.92 787.27 158.849 788.158 158.707C789.045 158.53 789.756 158.388 790.288 158.281L792.845 169.574C791.993 169.893 790.803 170.213 789.276 170.533C787.749 170.888 785.814 171.065 783.47 171.065C779.919 171.065 776.439 170.302 773.03 168.775C769.656 167.248 766.851 164.922 764.614 161.797C762.412 158.672 761.311 154.73 761.311 149.972V68.5795ZM810.263 170V88.1818H822.835V170H810.263ZM816.656 74.5455C814.205 74.5455 812.092 73.7109 810.317 72.0419C808.577 70.3729 807.707 68.3665 807.707 66.0227C807.707 63.679 808.577 61.6726 810.317 60.0035C812.092 58.3345 814.205 57.5 816.656 57.5C819.106 57.5 821.201 58.3345 822.941 60.0035C824.717 61.6726 825.604 63.679 825.604 66.0227C825.604 68.3665 824.717 70.3729 822.941 72.0419C821.201 73.7109 819.106 74.5455 816.656 74.5455ZM879.098 171.705C871.711 171.705 865.231 169.947 859.655 166.431C854.116 162.915 849.783 157.997 846.658 151.676C843.569 145.355 842.024 137.969 842.024 129.517C842.024 120.994 843.569 113.555 846.658 107.198C849.783 100.842 854.116 95.9055 859.655 92.3899C865.231 88.8743 871.711 87.1165 879.098 87.1165C886.484 87.1165 892.947 88.8743 898.487 92.3899C904.062 95.9055 908.395 100.842 911.484 107.198C914.609 113.555 916.172 120.994 916.172 129.517C916.172 137.969 914.609 145.355 911.484 151.676C908.395 157.997 904.062 162.915 898.487 166.431C892.947 169.947 886.484 171.705 879.098 171.705ZM879.098 160.412C884.709 160.412 889.325 158.974 892.947 156.097C896.569 153.221 899.251 149.439 900.991 144.751C902.731 140.064 903.601 134.986 903.601 129.517C903.601 124.048 902.731 118.952 900.991 114.229C899.251 109.506 896.569 105.689 892.947 102.777C889.325 99.8651 884.709 98.4091 879.098 98.4091C873.487 98.4091 868.871 99.8651 865.248 102.777C861.626 105.689 858.945 109.506 857.205 114.229C855.465 118.952 854.595 124.048 854.595 129.517C854.595 134.986 855.465 140.064 857.205 144.751C858.945 149.439 861.626 153.221 865.248 156.097C868.871 158.974 873.487 160.412 879.098 160.412ZM947.932 120.781V170H935.361V88.1818H947.506V100.966H948.571C950.489 96.8111 953.401 93.473 957.307 90.9517C961.213 88.3949 966.256 87.1165 972.435 87.1165C977.975 87.1165 982.822 88.2528 986.977 90.5256C991.132 92.7628 994.363 96.1719 996.672 100.753C998.98 105.298 1000.13 111.051 1000.13 118.011V170H987.563V118.864C987.563 112.436 985.894 107.429 982.556 103.842C979.218 100.22 974.637 98.4091 968.813 98.4091C964.8 98.4091 961.213 99.2791 958.053 101.019C954.928 102.759 952.46 105.298 950.649 108.636C948.838 111.974 947.932 116.023 947.932 120.781Z" fill="#DB2A2A"/>
</svg>
